# xmcd CD database file
#
# Track frame offsets:
#	150
#	20669
#	40500
#	61464
#
# Disc length: 1030 seconds
#
# Revision: 0
# Processed by: cddbd v1.5PL3 Copyright (c) Steve Scherf et al.
# Submitted via: CDex 1.50Beta7
#
DISCID=2b040404
DTITLE=ピュア天使 - angel beat
DYEAR=2003
DGENRE=Pop
TTITLE0=笑顔ください
TTITLE1=ふたりの時間
TTITLE2=カーテン
TTITLE3=KissからはじまるMiracle(pure)
EXTD=YEAR: 2003
EXTT0=
EXTT1=
EXTT2=
EXTT3=
PLAYORDER=
